<svg width="252" height="48" viewBox="0 0 252 48" fill="none" xmlns="http://www.w3.org/2000/svg">
<g clip-path="url(#clip0_33_205)">
<path d="M19.1808 11.472C19.1808 16.2437 16.6085 20.544 11.8368 20.544C16.6085 20.544 19.1808 24.8443 19.1808 29.616C19.1808 24.8443 21.7531 20.544 26.5248 20.544C21.7531 20.544 19.1808 16.2437 19.1808 11.472Z" stroke="#FFB800" stroke-width="2.208" stroke-linecap="round" stroke-linejoin="round"/>
<path d="M7.08481 25.296C7.08481 28.1591 4.33185 30.912 1.46881 30.912C4.33185 30.912 7.08481 33.6648 7.08481 36.528C7.08481 33.6648 9.83777 30.912 12.7008 30.912C9.83777 30.912 7.08481 28.1591 7.08481 25.296Z" stroke="#FFB800" stroke-width="2.208" stroke-linecap="round" stroke-linejoin="round"/>
</g>
<path d="M45.848 37.288C43.592 37.288 41.84 36.784 40.592 35.776C39.344 34.768 38.72 33.352 38.72 31.528H42.248C42.248 32.392 42.56 33.076 43.184 33.58C43.832 34.06 44.72 34.3 45.848 34.3H47.432C48.608 34.3 49.508 34.048 50.132 33.544C50.78 33.04 51.104 32.332 51.104 31.42C51.104 29.812 50.312 28.912 48.728 28.72L43.4 27.964C41.984 27.748 40.892 27.172 40.124 26.236C39.356 25.276 38.972 24.04 38.972 22.528C38.972 20.752 39.572 19.372 40.772 18.388C41.972 17.404 43.652 16.912 45.812 16.912H47.396C49.412 16.912 51.044 17.392 52.292 18.352C53.54 19.312 54.2 20.584 54.272 22.168H50.672C50.624 21.496 50.312 20.944 49.736 20.512C49.16 20.056 48.38 19.828 47.396 19.828H45.812C44.732 19.828 43.892 20.068 43.292 20.548C42.716 21.028 42.428 21.676 42.428 22.492C42.428 23.812 43.088 24.556 44.408 24.724L49.412 25.444C52.844 25.9 54.56 27.892 54.56 31.42C54.56 33.292 53.936 34.744 52.688 35.776C51.464 36.784 49.712 37.288 47.432 37.288H45.848ZM60.5939 43.48V17.2H64.1219V21.016H64.1579C64.3499 19.72 64.9259 18.7 65.8859 17.956C66.8459 17.212 68.0699 16.84 69.5579 16.84C71.5259 16.84 73.0979 17.512 74.2739 18.856C75.4499 20.176 76.0379 21.976 76.0379 24.256V29.908C76.0379 32.212 75.4499 34.036 74.2739 35.38C73.0979 36.7 71.5259 37.36 69.5579 37.36C68.0939 37.36 66.8819 36.988 65.9219 36.244C64.9619 35.5 64.3739 34.48 64.1579 33.184H64.0859L64.1579 37.756V43.48H60.5939ZM68.2979 34.264C69.6179 34.264 70.6379 33.928 71.3579 33.256C72.1019 32.56 72.4739 31.444 72.4739 29.908V24.292C72.4739 22.756 72.1019 21.652 71.3579 20.98C70.6379 20.284 69.6179 19.936 68.2979 19.936C67.0259 19.936 66.0179 20.332 65.2739 21.124C64.5299 21.916 64.1579 23.032 64.1579 24.472V29.728C64.1579 31.168 64.5299 32.284 65.2739 33.076C66.0179 33.868 67.0259 34.264 68.2979 34.264ZM87.9759 37.36C85.9359 37.36 84.3159 36.796 83.1159 35.668C81.9399 34.516 81.3519 33.016 81.3519 31.168C81.3519 29.32 81.9639 27.832 83.1879 26.704C84.4359 25.576 86.0679 25.012 88.0839 25.012H93.8799V23.5C93.8799 21.076 92.5359 19.864 89.8479 19.864C88.6479 19.864 87.6759 20.092 86.9319 20.548C86.2119 20.98 85.8279 21.592 85.7799 22.384H82.2519C82.3719 20.776 83.1039 19.456 84.4479 18.424C85.7919 17.368 87.5919 16.84 89.8479 16.84C92.2719 16.84 94.1439 17.416 95.4639 18.568C96.7839 19.72 97.4439 21.34 97.4439 23.428V37H93.9519V33.364H93.8799C93.7119 34.588 93.0999 35.56 92.0439 36.28C91.0119 37 89.6559 37.36 87.9759 37.36ZM88.9119 34.372C90.4239 34.372 91.6239 34.012 92.5119 33.292C93.4239 32.548 93.8799 31.54 93.8799 30.268V27.64H88.4079C87.3759 27.64 86.5359 27.952 85.8879 28.576C85.2639 29.176 84.9519 29.98 84.9519 30.988C84.9519 32.02 85.2999 32.848 85.9959 33.472C86.6919 34.072 87.6639 34.372 88.9119 34.372ZM104.486 37V17.2H108.014V21.016H108.05C108.242 19.72 108.794 18.7 109.706 17.956C110.642 17.212 111.878 16.84 113.414 16.84C115.454 16.84 117.038 17.476 118.166 18.748C119.294 19.996 119.858 21.76 119.858 24.04V25.768H116.294V24.076C116.294 21.316 114.938 19.936 112.226 19.936C110.858 19.936 109.814 20.332 109.094 21.124C108.398 21.916 108.05 23.044 108.05 24.508V37H104.486ZM125.532 37V10.72H129.096V25.264H132.732L138.06 17.2H142.092L135.864 26.668L142.416 37H138.312L132.768 28.324H129.096V37H125.532ZM157.522 37C155.722 37 154.282 36.472 153.202 35.416C152.122 34.36 151.582 32.956 151.582 31.204V13.96H144.814V10.72H155.146V31.168C155.146 31.96 155.362 32.596 155.794 33.076C156.25 33.532 156.862 33.76 157.63 33.76H163.642V37H157.522ZM176.156 37.36C173.78 37.36 171.86 36.652 170.396 35.236C168.956 33.82 168.236 31.888 168.236 29.44V24.76C168.236 22.312 168.956 20.38 170.396 18.964C171.86 17.548 173.78 16.84 176.156 16.84C177.74 16.84 179.12 17.164 180.296 17.812C181.496 18.436 182.42 19.324 183.068 20.476C183.74 21.604 184.076 22.924 184.076 24.436V28H171.728V29.728C171.728 31.168 172.124 32.296 172.916 33.112C173.708 33.928 174.788 34.336 176.156 34.336C177.308 34.336 178.256 34.12 179 33.688C179.744 33.256 180.188 32.656 180.332 31.888H183.896C183.656 33.568 182.828 34.9 181.412 35.884C179.996 36.868 178.244 37.36 176.156 37.36ZM171.728 24.436V25.372H180.584V24.436C180.584 22.924 180.2 21.76 179.432 20.944C178.664 20.128 177.572 19.72 176.156 19.72C174.74 19.72 173.648 20.128 172.88 20.944C172.112 21.76 171.728 22.924 171.728 24.436ZM197.742 37.36C196.83 37.36 196.086 37.084 195.51 36.532C194.958 35.98 194.682 35.272 194.682 34.408C194.682 33.496 194.958 32.752 195.51 32.176C196.086 31.6 196.83 31.312 197.742 31.312C198.654 31.312 199.386 31.6 199.938 32.176C200.514 32.752 200.802 33.496 200.802 34.408C200.802 35.272 200.514 35.98 199.938 36.532C199.386 37.084 198.654 37.36 197.742 37.36ZM217.491 37.36C215.451 37.36 213.831 36.796 212.631 35.668C211.455 34.516 210.867 33.016 210.867 31.168C210.867 29.32 211.479 27.832 212.703 26.704C213.951 25.576 215.583 25.012 217.599 25.012H223.395V23.5C223.395 21.076 222.051 19.864 219.363 19.864C218.163 19.864 217.191 20.092 216.447 20.548C215.727 20.98 215.343 21.592 215.295 22.384H211.767C211.887 20.776 212.619 19.456 213.963 18.424C215.307 17.368 217.107 16.84 219.363 16.84C221.787 16.84 223.659 17.416 224.979 18.568C226.299 19.72 226.959 21.34 226.959 23.428V37H223.467V33.364H223.395C223.227 34.588 222.615 35.56 221.559 36.28C220.527 37 219.171 37.36 217.491 37.36ZM218.427 34.372C219.939 34.372 221.139 34.012 222.027 33.292C222.939 32.548 223.395 31.54 223.395 30.268V27.64H217.923C216.891 27.64 216.051 27.952 215.403 28.576C214.779 29.176 214.467 29.98 214.467 30.988C214.467 32.02 214.815 32.848 215.511 33.472C216.207 34.072 217.179 34.372 218.427 34.372ZM233.101 37V33.76H240.049V20.44H233.821V17.2H243.613V33.76H250.129V37H233.101ZM241.489 13.708C240.673 13.708 240.025 13.504 239.545 13.096C239.065 12.664 238.825 12.088 238.825 11.368C238.825 10.624 239.065 10.036 239.545 9.604C240.025 9.172 240.673 8.956 241.489 8.956C242.305 8.956 242.953 9.172 243.433 9.604C243.913 10.036 244.153 10.624 244.153 11.368C244.153 12.088 243.913 12.664 243.433 13.096C242.953 13.504 242.305 13.708 241.489 13.708Z" fill="black"/>
<defs>
<clipPath id="clip0_33_205">
<rect width="27.84" height="28.8" fill="white" transform="translate(0 9.60001)"/>
</clipPath>
</defs>
</svg>
